<svg xmlns="http://www.w3.org/2000/svg" viewBox="0 0 640 640">
  <path fill="#ffffff" d="M260 280v40h-52v120h-40V320h-52v-40h144zm68 243c-10.8 0-21.3-1.2-31.4-3.8-10.1-2.6-18.8-6.3-26.1-11l11-35c6.5 4.1 13.9 7.2 22.2 9.6 8.3 2.3 16.4 3.5 24.6 3.5 11.9 0 20.8-2.1 27-6.2 6.1-4.1 9.2-10.2 9.2-18.2 0-5.4-1.7-9.9-4.7-13.7-3.1-3.8-7.1-6.9-12.3-9.7-5.1-2.8-10.9-5.4-17.4-7.9l-19.7-8.1c-6.8-2.9-12.8-6.1-18.2-9.9-5.4-3.8-9.8-8.8-13.2-14.6-3.4-5.9-5.1-13.5-5.1-22.6 0-9.9 2.7-18.9 8-26.7 5.3-7.8 12.8-13.9 22.6-18.3 9.8-4.4 21.8-6.5 35.8-6.5 8.8 0 17.4 1 25.2 2.8 7.9 1.9 14.8 4.6 21 8l-9.7 34c-5.7-3-11.7-5.5-17.9-7.2-6.1-1.7-12.5-2.7-19-2.7-9.8 0-17.3 1.9-22.5 5.6-5.2 3.7-7.9 8.8-7.9 15.3 0 4.9 1.7 9.2 4.7 12.7 3.1 3.6 7.1 6.5 12.2 9.1 5.1 2.6 10.9 5.1 17.5 7.8l20 8.2c6.8 2.8 12.8 6.1 18.1 9.9 5.3 3.8 9.7 8.8 13.2 14.7 3.4 6 5.1 13.6 5.1 22.8 0 10.3-2.7 19.4-8.1 27.4-5.3 8-13 14.5-22.9 19.1-9.9 4.8-21.7 7.3-35.5 7.3z"/>
</svg>
